<svg xmlns="http://www.w3.org/2000/svg" viewBox="0 0 937.44 82.45">
  <g id="レイヤー_2" data-name="レイヤー 2">
    <g id="bg">
      <g>
        <path d="M9.23,8.09V18.64H27.7v7.41H9.23V40.58H0V.68H30.15V8.09Z" style="fill: #fff"/>
        <path d="M55,38.59a19.91,19.91,0,0,1-7.81-7.38,20.18,20.18,0,0,1-2.82-10.58A20.17,20.17,0,0,1,47.2,10.06,19.91,19.91,0,0,1,55,2.68,23.23,23.23,0,0,1,66.21,0,23.06,23.06,0,0,1,77.38,2.68,20,20,0,0,1,88,20.63a20,20,0,0,1-10.66,18,23.06,23.06,0,0,1-11.17,2.68A23.23,23.23,0,0,1,55,38.59Zm17.58-6.81a11.75,11.75,0,0,0,4.48-4.53,13.39,13.39,0,0,0,1.62-6.62A13.35,13.35,0,0,0,77.07,14a11.61,11.61,0,0,0-4.48-4.53,13.37,13.37,0,0,0-12.76,0A11.61,11.61,0,0,0,55.35,14a13.35,13.35,0,0,0-1.62,6.61,13.39,13.39,0,0,0,1.62,6.62,11.75,11.75,0,0,0,4.48,4.53,13.37,13.37,0,0,0,12.76,0Z" style="fill: #fff"/>
        <path d="M114.33,38.62a19.82,19.82,0,0,1-7.75-7.36,20.23,20.23,0,0,1-2.82-10.63A20.28,20.28,0,0,1,106.58,10a19.86,19.86,0,0,1,7.75-7.35A23,23,0,0,1,125.42,0a23.39,23.39,0,0,1,9.38,1.82,18.86,18.86,0,0,1,7,5.25l-5.93,5.47a12.73,12.73,0,0,0-10-4.67,13.39,13.39,0,0,0-6.62,1.62A11.61,11.61,0,0,0,114.73,14a13.35,13.35,0,0,0-1.62,6.61,13.39,13.39,0,0,0,1.62,6.62,11.74,11.74,0,0,0,4.53,4.53,13.39,13.39,0,0,0,6.62,1.62,12.66,12.66,0,0,0,10-4.73l5.93,5.47a18.42,18.42,0,0,1-7.07,5.3,23.4,23.4,0,0,1-9.41,1.83A23,23,0,0,1,114.33,38.62Z" style="fill: #fff"/>
        <path d="M162.94,36.54Q158.19,31.8,158.18,23V.68h9.24v22q0,10.71,8.89,10.71a8.32,8.32,0,0,0,6.61-2.59q2.28-2.6,2.28-8.12V.68h9.12V23q0,8.77-4.76,13.51t-13.31,4.73Q167.7,41.27,162.94,36.54Z" style="fill: #fff"/>
        <path d="M218.48,40a21.47,21.47,0,0,1-7.09-3.34l3.13-6.95a21.33,21.33,0,0,0,6.1,3,22.92,22.92,0,0,0,7.07,1.14,11.26,11.26,0,0,0,5.81-1.17,3.51,3.51,0,0,0,1.88-3.11,3,3,0,0,0-1.11-2.36,8.35,8.35,0,0,0-2.85-1.51c-1.16-.38-2.73-.8-4.7-1.26a65.34,65.34,0,0,1-7.47-2.16,12.1,12.1,0,0,1-5-3.48,9.42,9.42,0,0,1-2.08-6.38,11.07,11.07,0,0,1,1.89-6.3,12.68,12.68,0,0,1,5.67-4.48A23.14,23.14,0,0,1,229,0a30.68,30.68,0,0,1,7.47.91,22.06,22.06,0,0,1,6.38,2.62l-2.85,7a22.35,22.35,0,0,0-11.06-3.13,10.45,10.45,0,0,0-5.73,1.25A3.85,3.85,0,0,0,221.36,12a3.23,3.23,0,0,0,2.14,3A34,34,0,0,0,230,17a65.7,65.7,0,0,1,7.46,2.16,12.34,12.34,0,0,1,5,3.42,9.17,9.17,0,0,1,2.08,6.33,10.91,10.91,0,0,1-1.91,6.24,12.78,12.78,0,0,1-5.73,4.47,23.18,23.18,0,0,1-9.29,1.66A32.89,32.89,0,0,1,218.48,40Z" style="fill: #fff"/>
        <path d="M299.24,38.59a19.91,19.91,0,0,1-7.81-7.38,20.18,20.18,0,0,1-2.82-10.58,20.17,20.17,0,0,1,2.82-10.57,19.91,19.91,0,0,1,7.81-7.38,24.68,24.68,0,0,1,22.37,0,20,20,0,0,1,10.66,18,20,20,0,0,1-10.66,18,24.68,24.68,0,0,1-22.37,0Zm17.58-6.81a11.82,11.82,0,0,0,4.48-4.53,13.39,13.39,0,0,0,1.62-6.62A13.35,13.35,0,0,0,321.3,14a11.68,11.68,0,0,0-4.48-4.53,13.39,13.39,0,0,0-12.77,0A11.59,11.59,0,0,0,299.58,14,13.35,13.35,0,0,0,298,20.63a13.39,13.39,0,0,0,1.62,6.62,11.72,11.72,0,0,0,4.47,4.53,13.39,13.39,0,0,0,12.77,0Z" style="fill: #fff"/>
        <path d="M387,.68v39.9h-7.58L359.5,16.36V40.58h-9.12V.68H358l19.83,24.23V.68Z" style="fill: #fff"/>
        <path d="M444.93,8.21H432.16V.68h34.77V8.21H454.16V40.58h-9.23Z" style="fill: #fff"/>
        <path d="M519.45.68v39.9h-9.24V24.23H492.09V40.58h-9.24V.68h9.24V16.42h18.12V.68Z" style="fill: #fff"/>
        <path d="M570.93,33.17v7.41H540V.68h30.15V8.09h-21v8.67h18.53v7.18H549.21v9.23Z" style="fill: #fff"/>
        <path d="M627.75,8.09V18.64h18.46v7.41H627.75V40.58h-9.24V.68h30.15V8.09Z" style="fill: #fff"/>
        <path d="M670.33,36.54Q665.58,31.8,665.58,23V.68h9.23v22q0,10.71,8.89,10.71a8.32,8.32,0,0,0,6.61-2.59q2.28-2.6,2.28-8.12V.68h9.12V23q0,8.77-4.76,13.51t-13.31,4.73Q675.09,41.27,670.33,36.54Z" style="fill: #fff"/>
        <path d="M730.25,8.21H717.48V.68h34.77V8.21H739.49V40.58h-9.24Z" style="fill: #fff"/>
        <path d="M772.79,36.54Q768,31.8,768,23V.68h9.23v22q0,10.71,8.89,10.71a8.32,8.32,0,0,0,6.61-2.59q2.28-2.6,2.28-8.12V.68h9.12V23q0,8.77-4.76,13.51t-13.31,4.73Q777.54,41.27,772.79,36.54Z" style="fill: #fff"/>
        <path d="M849.87,40.58l-7.7-11.11h-8.49V40.58h-9.24V.68h17.27a22.13,22.13,0,0,1,9.21,1.77,13.64,13.64,0,0,1,6,5A13.76,13.76,0,0,1,859,15.16a13.58,13.58,0,0,1-2.13,7.67,13.54,13.54,0,0,1-6.08,4.93l8.95,12.82ZM847.53,10c-1.45-1.19-3.55-1.79-6.33-1.79h-7.52V22.12h7.52c2.78,0,4.88-.61,6.33-1.83a6.34,6.34,0,0,0,2.17-5.13A6.34,6.34,0,0,0,847.53,10Z" style="fill: #fff"/>
        <path d="M908.44,33.17v7.41h-30.9V.68H907.7V8.09h-21v8.67h18.53v7.18H886.72v9.23Z" style="fill: #fff"/>
        <path d="M928,39.44a5.41,5.41,0,0,1-1.59-4,5.22,5.22,0,0,1,1.59-4,5.88,5.88,0,0,1,7.87,0,5.22,5.22,0,0,1,1.59,4,5.41,5.41,0,0,1-1.59,4,5.64,5.64,0,0,1-7.87,0Z" style="fill: #fff"/>
      </g>
      <g>
        <path d="M303.28,75.2c-1.71,0-2.32,0-2.44,0s-.21,0-.21-.18V73.82c0-.17,0-.18.21-.18s.73,0,2.44,0h4.38V71.38H305c-1.85,0-2.51,0-2.62,0s-.19,0-.19-.18V70c0-.16,0-.18.19-.18s.77,0,2.62,0h2.71v-.56a8.15,8.15,0,0,0-.13-1.92c.7,0,1.44,0,2.09.11.19,0,.3.1.3.18s-.11.29-.13.42a4.7,4.7,0,0,0-.09,1.18v.59h3c1.84,0,2.5,0,2.62,0s.19,0,.19.18v1.27c0,.16,0,.18-.19.18s-.78,0-2.62,0h-3v2.29h4.67c1.73,0,2.32,0,2.43,0s.23,0,.23.18v1.24c0,.16,0,.18-.23.18s-.7,0-2.43,0h-3.8a17.73,17.73,0,0,0,7.16,4.46,4.5,4.5,0,0,0-1,1.18c-.14.27-.21.37-.33.37a1.42,1.42,0,0,1-.45-.16,16.66,16.66,0,0,1-6.33-4.78c0,2.39.09,4.88.09,5.67,0,.16,0,.17-.2.17h-1.71c-.19,0-.21,0-.21-.17,0-.75.09-3.26.11-5.64a17.35,17.35,0,0,1-6,4.72,1.13,1.13,0,0,1-.44.17c-.11,0-.19-.11-.34-.38a4.11,4.11,0,0,0-.91-1.12,15.75,15.75,0,0,0,6.61-4.49Z" style="fill: #fff"/>
        <path d="M337.31,76c-1.71,0-2.3,0-2.41,0s-.21,0-.21-.19V74.67c0-.16,0-.18.21-.18s.7,0,2.41,0h4.56V71.07h-3.49c-1.83,0-2.43,0-2.55,0s-.21,0-.21-.17v-1.2c0-.16,0-.18.21-.18s.72,0,2.55,0h3.49v-.34a9.35,9.35,0,0,0-.13-1.91c.68,0,1.39,0,2.05.12.19,0,.27.09.27.16a1.76,1.76,0,0,1-.12.45,5,5,0,0,0-.09,1.16v.36h3.78c1.82,0,2.43,0,2.54,0s.23,0,.23.18v1.2c0,.16,0,.17-.23.17s-.72,0-2.54,0h-3.78v3.46h1.2a13.38,13.38,0,0,0,1.25-2.2,3.6,3.6,0,0,0,.3-.85,17.09,17.09,0,0,1,1.92.4c.23.06.31.14.31.26s-.06.16-.17.21-.25.22-.48.58c-.36.53-.7,1-1.14,1.6h1.63c1.71,0,2.3,0,2.42,0s.21,0,.21.18v1.18c0,.18,0,.19-.21.19s-.71,0-2.42,0h-3.62a17.82,17.82,0,0,0,6.82,3.89,4.54,4.54,0,0,0-1,1.18c-.15.29-.21.4-.34.4a1.39,1.39,0,0,1-.44-.16,16.32,16.32,0,0,1-6.31-4.55c0,2.34.1,4.6.1,5.2,0,.16,0,.18-.21.18H342c-.19,0-.2,0-.2-.18,0-.63.07-2.83.09-5.1a16,16,0,0,1-5.93,4.4,1.53,1.53,0,0,1-.45.17c-.14,0-.19-.12-.36-.39a4.33,4.33,0,0,0-.9-1.07,15.56,15.56,0,0,0,6.33-4Zm1.28-4.47c.2-.06.26-.06.38.08a11.89,11.89,0,0,1,1.19,2c.08.16,0,.19-.19.25l-1.36.44c-.25.08-.29.06-.37-.1a9.11,9.11,0,0,0-1.14-2c-.11-.16-.07-.21.16-.28Z" style="fill: #fff"/>
        <path d="M372.13,69.15c.32.15.44.24.44.39s0,.16-.29.48a3.47,3.47,0,0,0-.45,1.15,22,22,0,0,0-.8,5.21,12.73,12.73,0,0,0,.11,1.89c.4-.74.74-1.27,1.29-2.4a3.86,3.86,0,0,0,.67,1c0,.08.13.18.13.25a.42.42,0,0,1-.09.25,14.78,14.78,0,0,0-1.09,2.44,1.59,1.59,0,0,0-.05.5c0,.2,0,.32,0,.45s-.07.18-.24.21a10.36,10.36,0,0,1-1.56.26.22.22,0,0,1-.25-.18,13.11,13.11,0,0,1-.87-4.81,26.77,26.77,0,0,1,.64-5.29,11.15,11.15,0,0,0,.35-2.41A9.53,9.53,0,0,1,372.13,69.15Zm4.06,7.6c.16,0,.19.07.19.25.12,1.11,1,1.51,3.1,1.51a31.69,31.69,0,0,0,3.63-.21c.19,0,.23,0,.27.21a11.53,11.53,0,0,1,.11,1.39c0,.2,0,.21-.32.24a30,30,0,0,1-3.1.18c-2.81,0-4.12-.39-4.94-1.34a3.18,3.18,0,0,1-.66-2.1Zm-1.06-6c0-.2.08-.25.27-.28a34.91,34.91,0,0,1,4.12-.29c1.14,0,2,0,2.81.1.4,0,.44,0,.44.21,0,.48,0,.92,0,1.37,0,.15-.08.21-.25.19-1.14-.06-2.13-.09-3.09-.09a26.61,26.61,0,0,0-4.32.37C375.09,71.39,375.09,71,375.13,70.72Z" style="fill: #fff"/>
        <path d="M403,74c0-.55,0-1.25,0-1.81-.38.4-.78.8-1.18,1.18-.17.16-.29.24-.38.24s-.19-.12-.34-.34a5.43,5.43,0,0,0-.86-.91,12.93,12.93,0,0,0,3.65-3.87,4.44,4.44,0,0,0,.48-1.08,16.22,16.22,0,0,1,1.72.37c.18,0,.25.13.25.23s0,.16-.17.24a1.49,1.49,0,0,0-.42.5c-.19.27-.38.55-.59.82h3.54a12.48,12.48,0,0,0,.7-1.14,3.9,3.9,0,0,0,.32-.89,17.52,17.52,0,0,1,1.83.35.26.26,0,0,1,.21.23.27.27,0,0,1-.14.22,1.24,1.24,0,0,0-.36.36c-.21.32-.38.6-.59.87h3c1.84,0,2.48,0,2.6,0s.21,0,.21.18v1.09c0,.17,0,.18-.21.18s-.76,0-2.6,0h-3.14v1h2.19c1.8,0,2.45,0,2.56,0s.19,0,.19.17v1c0,.16,0,.18-.19.18s-.76,0-2.56,0h-2.19v1h2.19c1.8,0,2.45,0,2.56,0s.19,0,.19.18v1c0,.14,0,.16-.19.16s-.76,0-2.56,0h-2.19v1.08h3.29c1.86,0,2.51,0,2.62,0s.21,0,.21.19V78c0,.16,0,.17-.21.17s-.76,0-2.62,0h-8c-1.86,0-2.55,0-2.66,0s-.21,0-.21-.17,0-.73,0-2Zm1.35,4.85a.5.5,0,0,1,.19.12s0,.08,0,.17a10.79,10.79,0,0,1-2.24,2.8c-.08.06-.11.09-.17.09a.58.58,0,0,1-.25-.09l-1-.66c-.14-.1-.19-.15-.19-.2s0-.06.11-.13a10,10,0,0,0,2.19-2.48c.09-.16.11-.16.37,0ZM408.77,72v-1h-3.9v1Zm0,2.34v-1h-3.9v1Zm0,2.39V75.61h-3.9v1.08Zm-1.31,2c.24,0,.26,0,.32.15a19.05,19.05,0,0,1,.42,2.68c0,.16,0,.19-.27.22l-1.33.12c-.28,0-.32,0-.32-.15a18.52,18.52,0,0,0-.29-2.65c0-.17,0-.19.27-.22Zm3.72-.06c.23,0,.3,0,.4.1a13.54,13.54,0,0,1,1,2.56c0,.16,0,.2-.25.26l-1.29.31c-.29,0-.33,0-.36-.13a12,12,0,0,0-.84-2.62c-.08-.17,0-.21.21-.25Zm3.74-.31c.23-.09.29-.09.42,0a12.35,12.35,0,0,1,2,2.51c.1.16.08.19-.13.3l-1.12.58c-.23.12-.29.12-.38,0a12.76,12.76,0,0,0-2-2.72c-.12-.14-.12-.16.13-.25Z" style="fill: #fff"/>
        <path d="M434.62,81.37c-.26-.13-.26-.18-.13-.31a9.09,9.09,0,0,0,2-2.72c.08-.18.14-.17.4-.08l1.1.35c.23.08.29.1.21.26a9.84,9.84,0,0,1-2,3c-.06.08-.1.12-.17.12a.54.54,0,0,1-.25-.08Zm6.92-12a12,12,0,0,0-.15-2.08,17.67,17.67,0,0,1,2.1.13c.19,0,.29.06.29.16a.69.69,0,0,1-.08.32,2.45,2.45,0,0,0-.13,1.13v.13h4.29c1.75,0,2.36,0,2.47,0s.21,0,.21.17v1.3c0,.14,0,.16-.21.16s-.72,0-2.47,0h-4.29v1.46h2.53c1.84,0,2.5,0,2.64,0s.21,0,.21.16,0,.51,0,1.45V76c0,.94,0,1.34,0,1.44s0,.18-.21.18-.8,0-2.64,0h-6.31c-1.86,0-2.53,0-2.64,0s-.21,0-.21-.18,0-.5,0-1.44V73.8c0-.94,0-1.34,0-1.45s0-.16.21-.16.78,0,2.64,0h1.75ZM439,76.09h7.9V73.75H439Zm2.24,2.42c.25,0,.29,0,.33.18a16.34,16.34,0,0,1,.51,2.91c0,.16,0,.22-.27.24l-1.4.06c-.27,0-.32,0-.32-.16a16.2,16.2,0,0,0-.35-2.92c0-.16,0-.21.27-.23Zm3.65-.14c.25-.05.27,0,.34.14a14.82,14.82,0,0,1,1.12,2.88c0,.18,0,.21-.22.26l-1.35.24c-.29,0-.33,0-.36-.13a13.18,13.18,0,0,0-1-2.92c-.08-.15,0-.18.23-.23Zm3.82-.23c.25-.08.28-.09.42,0a14.93,14.93,0,0,1,2,2.92c.08.15.08.2-.17.29l-1.27.46c-.25.06-.29.08-.34-.07a14.48,14.48,0,0,0-1.85-3c-.11-.13-.05-.18.17-.26Z" style="fill: #fff"/>
        <path d="M477.5,78.53c0,.18-.11.26-.36.29a12.44,12.44,0,0,1-1.35.08c-.17,0-.24-.1-.24-.26,0-.58,0-1.39,0-2-1.69.75-2.3,1.38-2.3,2.15s.64,1.11,2.64,1.11a37.71,37.71,0,0,0,4.73-.32c.17,0,.24,0,.26.18a5.91,5.91,0,0,1,.18,1.32c0,.2-.06.31-.21.31a39.33,39.33,0,0,1-4.72.21c-3.11,0-4.76-.79-4.76-2.66,0-1.55,1.14-2.68,4-3.94-.05-.83-.28-1.15-1.14-1.12a5,5,0,0,0-2.62,1.17,24.29,24.29,0,0,0-1.9,1.75c-.09.1-.15.15-.22.15a.39.39,0,0,1-.21-.11,8.42,8.42,0,0,1-1.09-1.07.25.25,0,0,1-.07-.14c0-.07,0-.12.13-.18a17.73,17.73,0,0,0,4-4c-.89,0-1.92,0-3,0-.17,0-.23-.08-.26-.25s-.14-.86-.19-1.34c1.44.06,2.92,0,4.37,0a11.13,11.13,0,0,0,.56-1.39,3.19,3.19,0,0,0,.14-1A13.58,13.58,0,0,1,476,68a.29.29,0,0,1,.23.27.3.3,0,0,1-.13.24,1.26,1.26,0,0,0-.32.39c-.12.23-.21.44-.44.87a33.52,33.52,0,0,0,3.46-.5c.21,0,.26,0,.3.17a4.92,4.92,0,0,1,.19,1.16c0,.16-.06.22-.32.26-1.43.17-3.06.35-4.45.48a17.09,17.09,0,0,1-1.42,1.79l0,0a4.35,4.35,0,0,1,1.9-.5c1.25,0,2.12.49,2.31,1.75.74-.29,1.83-.71,2.8-1.13a5.67,5.67,0,0,0,1.44-.87,10,10,0,0,1,1.33,1.42.57.57,0,0,1,.15.35c0,.13-.09.19-.28.23a7.46,7.46,0,0,0-1.16.24c-1.24.37-2.47.73-4.09,1.29Z" style="fill: #fff"/>
        <path d="M506.74,68.1c.23.07.34.16.34.29a.32.32,0,0,1-.1.26,1.15,1.15,0,0,0-.26.58c-.06.29-.1.53-.15.81a43,43,0,0,0,4.94-.68c.22,0,.28,0,.32.16a4.53,4.53,0,0,1,.19,1.1c0,.21-.19.29-.4.32a46.44,46.44,0,0,1-5.4.68c-.07.68-.11,1.07-.13,1.63A13,13,0,0,1,509,72.9a3.64,3.64,0,0,0,.32-1.18,8.7,8.7,0,0,1,1.69.59c.23.13.34.26.34.36a.24.24,0,0,1-.11.19,1.65,1.65,0,0,0-.25.33c2.45.55,3.9,1.92,3.9,3.94,0,2.34-2.26,3.85-5.28,4.55-.42.09-.63,0-.84-.31a4.56,4.56,0,0,0-1.12-1,12,12,0,0,0,3.53-1.18,2.7,2.7,0,0,0,1.52-2.42c0-1.29-1.08-2.07-2.35-2.34a17.58,17.58,0,0,1-3.59,4.23,4.43,4.43,0,0,0,.34.73c.11.21,0,.29-.15.4a6.43,6.43,0,0,1-1.14.56c-.19.09-.27.09-.38-.08a2.67,2.67,0,0,1-.33-.63,6.52,6.52,0,0,1-3.3,1.17,1.91,1.91,0,0,1-2.11-2c0-2.06,2.11-4,4.44-5,0-.69.06-1.4.1-2-1.12,0-1.63,0-2,0a9.53,9.53,0,0,1-1.08,0c-.21,0-.32-.1-.34-.37s-.06-.78-.1-1.23a36.59,36.59,0,0,0,3.69.07c.07-.59.15-1.31.15-1.76a3.08,3.08,0,0,0-.08-.73A12.32,12.32,0,0,1,506.74,68.1Zm-5.06,10.37a.6.6,0,0,0,.63.61,4.35,4.35,0,0,0,2.2-.94,19.57,19.57,0,0,1-.38-2.77C502.67,76.25,501.68,77.42,501.68,78.47Zm6.75-4.2a10.05,10.05,0,0,0-2.43.37,15,15,0,0,0,.22,2.42A15,15,0,0,0,508.43,74.27Z" style="fill: #fff"/>
        <path d="M540.21,71.09c-2.32.37-4.35.71-6.38,1.06-.72.15-.91.18-1.2.26a1.15,1.15,0,0,1-.42.13.46.46,0,0,1-.36-.24,11.06,11.06,0,0,1-.7-1.75,29,29,0,0,0,3-.27c2.34-.29,6.52-.82,11.42-1.37.28,0,.38.06.4.18a8.34,8.34,0,0,1,.21,1.42c0,.19-.12.24-.36.24a10.14,10.14,0,0,0-2.32.35c-3.23.94-4.85,2.83-4.85,4.77s1.75,3.21,5.06,3.39c.3,0,.42.06.42.24a5.09,5.09,0,0,1-.21,1.39c-.06.24-.14.34-.36.34-3.35,0-7-1.63-7-5,0-2.29,1.34-3.84,3.64-5.12Z" style="fill: #fff"/>
        <path d="M575.28,71c.12,0,.19,0,.23.1a10.48,10.48,0,0,1,.46,1.37c0,.18,0,.21-.16.24a33.16,33.16,0,0,1-4.8.73,36.17,36.17,0,0,0,.32,3.73,24.24,24.24,0,0,1,5.51,2.08c.13.06.15.14.08.27a7.75,7.75,0,0,1-1,1.36c-.12.1-.17.14-.32,0a19.15,19.15,0,0,0-4.22-2,2.49,2.49,0,0,1,0,.37c-.08,1.39-1.29,2.43-3.84,2.43-2.33,0-4-.89-4-2.38s1.8-2.47,4.16-2.47a15.07,15.07,0,0,1,1.59,0c-.23-2.11-.28-3.65-.32-5.18,0-.58,0-1.41-.06-2.23a4.13,4.13,0,0,0-.26-1.47,22.06,22.06,0,0,1,2.43.29c.21,0,.3.15.3.28a.48.48,0,0,1-.09.24,1.81,1.81,0,0,0-.23.87c0,.49,0,1.2,0,2A21.82,21.82,0,0,0,575.28,71Zm-6,7.46a9.7,9.7,0,0,0-1.75-.16c-1.33,0-2.18.37-2.18.95s.76.82,1.95.82c1.43,0,2.06-.71,2-1.39Z" style="fill: #fff"/>
        <path d="M597.81,72.35a15.85,15.85,0,0,1,4.35-.81c2.55,0,4,1.47,4,3.84a5.72,5.72,0,0,1-1.54,3.86A10.56,10.56,0,0,1,601,81.81a1,1,0,0,1-.33.08.67.67,0,0,1-.45-.21,4.84,4.84,0,0,0-1.58-.86,10.32,10.32,0,0,0,4.18-2.69,4.29,4.29,0,0,0,1-2.86c0-1.34-.66-2-1.76-2a7.32,7.32,0,0,0-3,.7,10.38,10.38,0,0,0-1.61.77.75.75,0,0,1-.42.17.71.71,0,0,1-.53-.36,10.93,10.93,0,0,1-1-1.69A12,12,0,0,0,597.81,72.35Zm6.94-3.72c.21,0,.28.17.24.29a11.2,11.2,0,0,1-.41,1.43c-.06.16-.12.24-.27.22a29.15,29.15,0,0,1-5.51-1.24c-.09,0-.19-.11-.13-.32a6.49,6.49,0,0,1,.57-1.52A27.6,27.6,0,0,0,604.75,68.63Z" style="fill: #fff"/>
        <path d="M632.09,80.13a2.79,2.79,0,1,1-2.75-2.33A2.56,2.56,0,0,1,632.09,80.13Zm-4.33,0a1.6,1.6,0,1,0,1.58-1.34A1.45,1.45,0,0,0,627.76,80.13Z" style="fill: #fff"/>
      </g>
    </g>
  </g>
</svg>
